<?xml version="1.0" encoding="UTF-8" standalone="no"?>
<!DOCTYPE svg PUBLIC "-//W3C//DTD SVG 1.1//EN" "http://www.w3.org/Graphics/SVG/1.1/DTD/svg11.dtd">
<svg width="100%" height="100%" viewBox="0 0 32 32" version="1.1" xmlns="http://www.w3.org/2000/svg" xmlns:xlink="http://www.w3.org/1999/xlink" xml:space="preserve" xmlns:serif="http://www.serif.com/" style="fill-rule:evenodd;clip-rule:evenodd;stroke-linejoin:round;stroke-miterlimit:2;">
    <g transform="matrix(1,0,0,1,-111.701,-519.559)">
        <g transform="matrix(0.354649,0,0,0.354649,40.8116,398.589)">
            <g transform="matrix(5.625,0,0,5.625,-404.847,-2343.56)">
                <path d="M123.549,485.293C123.549,480.866 119.955,477.272 115.528,477.272C111.102,477.272 107.508,480.866 107.508,485.293C107.508,489.719 111.102,493.313 115.528,493.313C119.955,493.313 123.549,489.719 123.549,485.293Z" style="fill:white;"/>
            </g>
            <g transform="matrix(5.625,0,0,5.625,-486.108,-2322.98)">
                <path d="M125.53,477.228C127.493,477.228 129.086,478.821 129.086,480.783C129.086,482.746 127.493,484.339 125.53,484.339C123.568,484.339 121.975,482.746 121.975,480.783C121.975,478.821 123.568,477.228 125.53,477.228ZM134.419,477.228C136.382,477.228 137.975,478.821 137.975,480.783C137.975,482.746 136.382,484.339 134.419,484.339C132.457,484.339 130.864,482.746 130.864,480.783C130.864,478.821 132.457,477.228 134.419,477.228ZM125.53,479.006C126.511,479.006 127.308,479.802 127.308,480.783C127.308,481.765 126.511,482.561 125.53,482.561C124.549,482.561 123.752,481.765 123.752,480.783C123.752,479.802 124.549,479.006 125.53,479.006ZM134.419,479.006C135.4,479.006 136.197,479.802 136.197,480.783C136.197,481.765 135.4,482.561 134.419,482.561C133.438,482.561 132.641,481.765 132.641,480.783C132.641,479.802 133.438,479.006 134.419,479.006Z" style="fill:rgb(40,36,36);"/>
            </g>
            <g transform="matrix(5.625,0,0,5.625,-486.108,-2322.98)">
                <path d="M128.375,483.375C128.375,482.884 127.976,482.486 127.486,482.486L127.041,482.486C126.796,482.486 126.597,482.685 126.597,482.93L126.597,485.152C126.597,485.643 126.995,486.041 127.486,486.041L127.93,486.041C128.176,486.041 128.375,485.842 128.375,485.597L128.375,483.375ZM130.864,484.086C130.864,483.595 130.465,483.197 129.975,483.197C129.484,483.197 129.086,483.595 129.086,484.086L129.086,485.152C129.086,485.643 129.484,486.041 129.975,486.041C130.465,486.041 130.864,485.643 130.864,485.152L130.864,484.086ZM133.352,482.93C133.352,482.685 133.153,482.486 132.908,482.486L132.464,482.486C131.973,482.486 131.575,482.884 131.575,483.375L131.575,485.597C131.575,485.842 131.774,486.041 132.019,486.041L132.464,486.041C132.954,486.041 133.352,485.643 133.352,485.152L133.352,482.93Z" style="fill:rgb(255,62,62);"/>
            </g>
        </g>
    </g>
</svg>
