<?xml version="1.0" encoding="UTF-8" standalone="no"?>
<!DOCTYPE svg PUBLIC "-//W3C//DTD SVG 1.1//EN" "http://www.w3.org/Graphics/SVG/1.1/DTD/svg11.dtd">
<svg width="100%" height="100%" viewBox="0 0 90 50" version="1.1" xmlns="http://www.w3.org/2000/svg" xmlns:xlink="http://www.w3.org/1999/xlink" xml:space="preserve" xmlns:serif="http://www.serif.com/" style="fill-rule:evenodd;clip-rule:evenodd;stroke-linejoin:round;stroke-miterlimit:2;">
    <g transform="matrix(1,0,0,1,-100,-361.424)">
        <g transform="matrix(1,0,0,1,-100,0)">
            <path d="M220,361.424C231.038,361.424 240,370.386 240,381.424C240,392.462 231.038,401.424 220,401.424C208.962,401.424 200,392.462 200,381.424C200,370.386 208.962,361.424 220,361.424ZM220,371.424C225.519,371.424 230,375.905 230,381.424C230,386.943 225.519,391.424 220,391.424C214.481,391.424 210,386.943 210,381.424C210,375.905 214.481,371.424 220,371.424Z" style="fill:rgb(40,36,36);"/>
            <path d="M270,361.424C281.038,361.424 290,370.386 290,381.424C290,392.462 281.038,401.424 270,401.424C258.962,401.424 250,392.462 250,381.424C250,370.386 258.962,361.424 270,361.424ZM270,371.424C275.519,371.424 280,375.905 280,381.424C280,386.943 275.519,391.424 270,391.424C264.481,391.424 260,386.943 260,381.424C260,375.905 264.481,371.424 270,371.424Z" style="fill:rgb(40,36,36);"/>
            <g transform="matrix(1,0,0,1,-4,121)">
                <path d="M240,275C240,272.24 237.76,270 235,270L232.5,270C231.12,270 230,271.12 230,272.5L230,285C230,287.76 232.24,290 235,290L237.5,290C238.88,290 240,288.88 240,287.5L240,275Z" style="fill:rgb(255,62,62);"/>
            </g>
            <g transform="matrix(1,0,0,1,24,121)">
                <path d="M240,272.5C240,271.12 238.88,270 237.5,270L235,270C232.24,270 230,272.24 230,275L230,287.5C230,288.88 231.12,290 232.5,290L235,290C237.76,290 240,287.76 240,285L240,272.5Z" style="fill:rgb(255,62,62);"/>
            </g>
            <g transform="matrix(1,0,0,0.8,0,179)">
                <path d="M250,276.25C250,272.801 247.76,270 245,270C242.24,270 240,272.801 240,276.25L240,283.75C240,287.199 242.24,290 245,290C247.76,290 250,287.199 250,283.75L250,276.25Z" style="fill:rgb(255,62,62);"/>
            </g>
        </g>
    </g>
</svg>
